# AST/ASF file generated using VICON BodyLanguage
# -----------------------------------------------
:version 1.10
:name VICON
:units
  mass 1.0
  length 0.45
  angle deg
:documentation
   .ast/.asf automatically generated from VICON data using
   VICON BodyBuilder and BodyLanguage model FoxedUp or BRILLIANT.MOD
:root
   order TX TY TZ RX RY RZ
   axis XYZ
   position 0 0 0  
   orientation 0 0 0 
:bonedata
  begin
     id 1 
     name lhipjoint
     direction 0.702568 -0.596508 0.388042 
     length 2.56661 
     axis 0 0 0  XYZ
  end
  begin
     id 2 
     name lfemur
     direction 0.34202 -0.939693 0  
     length 6.58374  
     axis 0 0 20  XYZ
    dof rx ry rz
    limits (-160.0 20.0)
           (-70.0 70.0)
           (-60.0 70.0)
  end
  begin
     id 3 
     name ltibia
     direction 0.34202 -0.939693 0   
     length 6.62538   
     axis 0 0 20   XYZ
    dof rx
    limits (-10.0 170.0)
  end
  begin
     id 4 
     name lfoot
     direction 0.10455 -0.287249 0.952133   
     length 2.26699   
     axis -90 7.62852e-016 20   XYZ
    dof rx rz
    limits (-45.0 90.0)
           (-70.0 20.0)
  end
  begin
     id 5 
     name ltoes
     direction 1.53572e-011 -4.22322e-011 1   
     length 1.12949   
     axis -90 7.62852e-016 20   XYZ
    dof rx
    limits (-90.0 20.0)
  end
  begin
     id 6 
     name rhipjoint
     direction -0.728055 -0.574632 0.373811   
     length 2.66432  
     axis 0 0 0  XYZ 
  end
  begin
     id 7 
     name rfemur
     direction -0.34202 -0.939693 0   
     length 6.66732   
     axis 0 0 -20   XYZ
    dof rx ry rz
    limits (-160.0 20.0)
           (-70.0 70.0)
           (-70.0 60.0)
  end
  begin
     id 8 
     name rtibia
     direction -0.34202 -0.939693 0   
     length 6.59288   
     axis 0 0 -20   XYZ
    dof rx
    limits (-10.0 170.0)
 end
 begin
     id 9 
     name rfoot
     direction -0.119193 -0.327479 0.93731   
     length 2.38061  
     axis -90 -7.62852e-016 -20   XYZ
    dof rx rz
    limits (-45.0 90.0)
           (-20.0 70.0)
  end
  begin
     id 10 
     name rtoes
     direction -1.53547e-011 -4.21827e-011 1   
     length 1.17899   
     axis -90 -7.62852e-016 -20   XYZ
    dof rx
    limits (-90.0 20.0)
  end
  begin
     id 11 
     name lowerback
     direction -0.000416114 0.999912 -0.0132284   
     length 2.12109   
     axis 0 0 0   XYZ
    dof rx ry rz
    limits (-20.0 45.0)
           (-30.0 30.0)
           (-30.0 30.0)
  end
  begin
     id 12 
     name upperback
     direction -0.00136371 0.99809 0.0617608   
     length 2.10067   
     axis 0 0 0   XYZ
    dof rx ry rz
    limits (-20.0 45.0)
           (-30.0 30.0)
           (-30.0 30.0)
  end
  begin
     id 13 
     name thorax
     direction -3.43026e-005 0.997776 0.0666515   
     length 2.10618   
     axis 0 0 0   XYZ
    dof rx ry rz
    limits (-20.0 45.0)
           (-30.0 30.0)
           (-30.0 30.0)
  end
  begin
     id 14 
     name lowerneck
     direction 0.0398646 0.998418 0.0396592   
     length 1.83817   
     axis 0 0 0   XYZ
    dof rx ry rz
    limits (-20.0 45.0)
           (-30.0 30.0)
           (-30.0 30.0)
  end
  begin
     id 15 
     name upperneck
     direction -0.0367268 0.961527 -0.272244   
     length 1.81975   
     axis 0 0 0   XYZ
    dof rx ry rz
    limits (-20.0 45.0)
           (-30.0 30.0)
           (-30.0 30.0)
  end
  begin
     id 16
     name head
     direction -0.0182665 0.99536 -0.0944669  
     length 1.86026  
     axis 0 0 0   XYZ
    dof rx ry rz
    limits (-20.0 45.0)
           (-30.0 30.0)
           (-30.0 30.0)
  end
  begin
     id 17 
     name lclavicle
     direction 0.924239 0.361045 0.124212  
     length 3.26878  
     axis 0 0 0   XYZ
    dof ry rz
    limits (-20.0 10.0)
           (0.0 20.0)
  end
  begin
     id 18 
     name lhumerus
     direction 1 -4.48968e-011 -2.56583e-027   
     length 4.58538   
     axis 180 -30 -90   XYZ
    dof rx ry rz
    limits (-60.0 90.0)
           (-90.0 90.0)
           (-90.0 90.0)
  end
  begin
     id 19
     name lradius
     direction 1 -4.4898e-011 -5.50375e-027   
     length 2.68935   
     axis 180 -30 -90   XYZ
    dof rx
    limits (-10.0 170.0)
  end
  begin
     id 20
     name lwrist
     direction 1 -4.48939e-011 -1.48955e-026   
     length 1.34468   
     axis 9.0955e-015 90 90   XYZ
    dof ry
    limits (-180.0 0.0)
 end
  begin
     id 21 
     name lhand
     direction 1 -4.48936e-011 -2.97907e-026   
     length 0.585058   
     axis 1.90115e-014 90 90   XYZ
    dof rx rz
    limits (-90.0 90.0)
           (-45.0 45.0)
  end
  begin
     id 22 
     name lfingers
     direction 1 -4.49082e-011 -5.96235e-026   
     length 0.471689   
     axis 3.80223e-014 90 90   XYZ
    dof rx
    limits (0.0 90.0)
  end
  begin
     id 23
     name lthumb
     direction 0.707107 -6.3489e-011 0.707107   
     length 0.677253   
     axis -90 45 -3.84942e-014   XYZ
    dof rx rz
    limits (-45.0 45.0)
           (-45.0 45.0)
  end
  begin
     id 24 
     name rclavicle
     direction -0.923098 0.371783 0.0983239   
     length 3.19656  
     axis 0 0 0   XYZ 
    dof ry rz
    limits (-10.0 20.0)
           (-20.0 0.0)
  end
  begin
     id 25 
     name rhumerus
     direction -1 -4.48976e-011 -2.5492e-027  
     length 4.4745   
     axis 180 30 90   XYZ
    dof rx ry rz
    limits (-90.0 60.0)
           (-90.0 90.0)
           (-90.0 90.0)
  end
  begin
     id 26 
     name rradius
     direction -1 -4.48941e-011 -4.36555e-027   
     length 2.93896   
     axis 180 30 90   XYZ
    dof rx
    limits (-10.0 170.0)
  end
  begin
     id 27 
     name rwrist
     direction -1 -4.49044e-011 -1.49032e-026   
     length 1.46948   
     axis 9.0955e-015 -90 -90   XYZ
    dof ry
    limits (-180.0 0.0)
  end
  begin
     id 28
     name rhand
     direction -1 -4.48826e-011 -2.97749e-026   
     length 0.405092   
     axis 1.90115e-014 -90 -90   XYZ
    dof rx rz
    limits (-90.0 90.0)
           (-45.0 45.0)
  end
  begin
     id 29
     name rfingers
     direction -1 -4.49209e-011 -5.96602e-026   
     length 0.326596   
     axis 3.80223e-014 -90 -90   XYZ
    dof rx
    limits (0.0 90.0)
  end
  begin
     id 30
     name rthumb
     direction -0.707107 -6.34776e-011 0.707107   
     length 0.468928   
     axis -90 -45 3.84942e-014   XYZ
    dof rx rz
    limits (-45.0 45.0)
           (-45.0 45.0)
  end
:hierarchy
  begin
    root lhipjoint rhipjoint lowerback
    lhipjoint lfemur
    lfemur ltibia
    ltibia lfoot
    lfoot ltoes
    rhipjoint rfemur
    rfemur rtibia
    rtibia rfoot
    rfoot rtoes
    lowerback upperback
    upperback thorax
    thorax lowerneck lclavicle rclavicle
    lowerneck upperneck
    upperneck head
    lclavicle lhumerus
    lhumerus lradius
    lradius lwrist
    lwrist lhand lthumb
    lhand lfingers
    rclavicle rhumerus
    rhumerus rradius
    rradius rwrist
    rwrist rhand rthumb
    rhand rfingers
  end

#!OML:ASF H:\Punching\Project 1\Capture day 1\Session 1\female.ASF
:FULLY-SPECIFIED
:DEGREES
536
root 2.07702 15.4974 8.15665 11.2949 -9.70546 -1.58899
lowerback -1.60554 -2.19993 3.8494
upperback -6.9837 -2.86387 0.621171
thorax -6.52894 -1.63736 -1.37797
lowerneck 1.14271 13.231 20.3135
upperneck 21.1941 20.4517 -14.8162
head 10.2476 10.2462 -6.2183
rclavicle 5.3765e-014 -3.18055e-015
rhumerus -17.8429 45.9839 -95.9971
rradius 91.1133
rwrist -0.0867855
rhand -6.35139 -0.615645
rfingers 7.12502
rthumb 19.4945 -29.6583
lclavicle 5.3765e-014 -3.18055e-015
lhumerus 28.1965 -15.9821 65.8377
lradius 106.607
lwrist 22.9301
lhand -12.0786 17.2691
lfingers 7.12502
lthumb 13.9813 46.779
rfemur -4.25327 8.57937 14.8553
rtibia 17.0498
rfoot -19.3702 -16.1425
rtoes -10.4599
lfemur -32.1246 -3.81054 -4.01186
ltibia 23.6686
lfoot 0.806512 16.4509
ltoes -2.61214
537
root 2.14467 15.4769 8.25095 11.2626 -9.63673 -1.70274
lowerback -1.63291 -2.1415 4.02335
upperback -6.98786 -2.78489 0.578131
thorax -6.52596 -1.60956 -1.52412
lowerneck 1.04435 13.1601 20.3811
upperneck 21.3209 20.2939 -14.6082
head 10.2632 10.1869 -6.17478
rclavicle -6.27507e-014 -2.18663e-015
rhumerus -19.2406 45.4793 -95.3928
rradius 92.9213
rwrist -2.92984
rhand -6.57884 -1.0085
rfingers 7.12502
rthumb 19.2758 -30.0732
lclavicle -6.27507e-014 -2.18663e-015
lhumerus 28.3341 -14.1451 63.8896
lradius 106.435
lwrist 22.3931
lhand -12.3266 17.0695
lfingers 7.12502
lthumb 13.7422 46.5957
rfemur -3.37062 8.63396 14.7226
rtibia 16.1747
rfoot -19.2457 -16.2496
rtoes -10.7498
lfemur -32.5045 -2.79599 -4.69203
ltibia 25.0041
lfoot 0.476456 14.755
ltoes -3.14509
538
root 2.21315 15.4563 8.34604 11.2335 -9.55844 -1.80787
lowerback -1.65298 -2.09185 4.17153
upperback -6.98525 -2.71726 0.551249
thorax -6.51772 -1.58516 -1.63852
lowerneck 0.918191 13.1001 20.422
upperneck 21.4365 20.1502 -14.4165
head 10.2817 10.1299 -6.12857
rclavicle 1.63935e-014 1.0138e-014
rhumerus -20.6864 44.8991 -94.7637
rradius 94.7496
rwrist -5.66679
rhand -6.64523 -1.46331
rfingers 7.12502
rthumb 19.212 -30.5344
lclavicle 1.63935e-014 1.0138e-014
lhumerus 28.3686 -12.2779 61.9344
lradius 106.279
lwrist 21.9745
lhand -12.5394 16.918
lfingers 7.12502
lthumb 13.5372 46.4579
rfemur -2.46483 8.68402 14.5819
rtibia 15.2512
rfoot -19.0922 -16.3673
rtoes -11.0249
lfemur -32.9256 -1.9218 -5.34906
ltibia 26.4302
lfoot -0.233681 13.2862
ltoes -3.57826
539
root 2.28169 15.4364 8.44147 11.215 -9.47463 -1.91142
lowerback -1.66556 -2.04937 4.29383
upperback -6.98099 -2.65841 0.545744
thorax -6.50962 -1.56285 -1.7156
lowerneck 0.76777 13.0508 20.4378
upperneck 21.5467 20.0239 -14.248
head 10.3063 10.0765 -6.08231
rclavicle 2.62582e-014 -1.14301e-014
rhumerus -22.1816 44.2315 -94.1083
rradius 96.5383
rwrist -7.96702
rhand -6.56455 -1.90135
rfingers 7.12502
rthumb 19.2896 -30.9647
lclavicle 2.62582e-014 -1.14301e-014
lhumerus 28.2918 -10.3776 59.966
lradius 106.138
lwrist 21.6189
lhand -12.6554 16.8427
lfingers 7.12502
lthumb 13.4254 46.3901
rfemur -1.54516 8.73863 14.4432
rtibia 14.2755
rfoot -18.9014 -16.4978
rtoes -11.2677
lfemur -33.3767 -1.22307 -5.9444
ltibia 27.8735
lfoot -1.15401 12.1508
ltoes -3.68604
540
root 2.34946 15.4172 8.53659 11.2122 -9.38561 -2.0187
lowerback -1.66752 -2.012 4.38749
upperback -6.97926 -2.60521 0.564366
thorax -6.5076 -1.54098 -1.75086
lowerneck 0.59286 13.009 20.4234
upperneck 21.6588 19.9107 -14.0997
head 10.3379 10.0246 -6.03507
rclavicle 5.50789e-014 -1.72943e-014
rhumerus -23.7403 43.4837 -93.4344
rradius 98.2355
rwrist -9.5575
rhand -6.43295 -2.23321
rfingers 7.12502
rthumb 19.4161 -31.2838
lclavicle 5.50789e-014 -1.72943e-014
lhumerus 28.0961 -8.4414 57.9887
lradius 105.999
lwrist 21.2575
lhand -12.6228 16.8278
lfingers 7.12502
lthumb 13.4568 46.3731
rfemur -0.626335 8.80419 14.3154
rtibia 13.2613
rfoot -18.6799 -16.6476
rtoes -11.4586
lfemur -33.8405 -0.698134 -6.46193
ltibia 29.2771
lfoot -2.15157 11.3376
ltoes -3.54485
541
root 2.41575 15.3976 8.63108 11.2298 -9.29436 -2.14232
lowerback -1.66131 -1.97525 4.46046
upperback -6.98593 -2.5512 0.612054
thorax -6.51648 -1.51686 -1.7438
lowerneck 0.410802 12.9666 20.3699
upperneck 21.7739 19.8027 -13.9696
head 10.3706 9.97067 -5.98778
rclavicle -2.80845e-014 1.02374e-014
rhumerus -25.3881 42.6716 -92.755
rradius 99.8051
rwrist -10.2593
rhand -6.36405 -2.37237
rfingers 7.12502
rthumb 19.4824 -31.4163
lclavicle -2.80845e-014 1.02374e-014
lhumerus 27.7562 -6.46618 56.0281
lradius 105.838
lwrist 20.8431
lhand -12.3963 16.8015
lfingers 7.12502
lthumb 13.6751 46.3322
rfemur 0.277845 8.88719 14.2134
rtibia 12.2281
rfoot -18.4392 -16.817
rtoes -11.5824
lfemur -34.291 -0.31142 -6.89562
ltibia 30.604
lfoot -3.16931 10.7915
ltoes -3.28578
542
root 2.48003 15.3768 8.72456 11.2707 -9.2079 -2.28538
lowerback -1.64723 -1.92834 4.51999
upperback -7.01239 -2.48195 0.679382
thorax -6.54837 -1.48446 -1.70865
lowerneck 0.243916 12.9124 20.3131
upperneck 21.9021 19.6888 -13.8641
head 10.4068 9.91327 -5.95155
rclavicle 1.20172e-014 -1.59028e-015
rhumerus -27.1662 41.78 -92.0986
rradius 101.228
rwrist -9.99949
rhand -6.47103 -2.25226
rfingers 7.12502
rthumb 19.3795 -31.3066
lclavicle 1.20172e-014 -1.59028e-015
lhumerus 27.2719 -4.48307 54.0813
lradius 105.67
lwrist 20.3672
lhand -11.9494 16.8074
lfingers 7.12502
lthumb 14.1057 46.3087
rfemur 1.15479 8.99098 14.1407
rtibia 11.1937
rfoot -18.1816 -17.0073
rtoes -11.6552
lfemur -34.7021 -0.0174541 -7.25751
ltibia 31.8329
lfoot -4.17161 10.4163
ltoes -3.06181
